<svg xmlns="http://www.w3.org/2000/svg" opacity="0.25" viewBox="0 0 3000 2000">
  <g transform="matrix(-1 0 0 1 3000 0)">
    <linearGradient id="a" x1="0" x2="0" y1="0" y2="1">
      <stop offset="0" stop-color="#fd382e" />
      <stop offset="1" stop-color="#2700db" />
    </linearGradient>
    <linearGradient id="b" x1="0" x2="0" y1="0" y2="1">
      <stop offset="0" stop-color="#e6f825" />
      <stop offset="1" stop-color="#fd382e" />
    </linearGradient>
    <linearGradient id="c" x1="0" x2="0" y1="0" y2="1">
      <stop offset="0" stop-color="#785aff" />
      <stop offset="1" stop-color="#2700db" />
    </linearGradient>
    <path fill="url(#a)"
      d="M0 0v1138.8q250-283.112 500-302.336t500 131.446 500-195.981 500-412.759 500-106.155 500-110.248V0Z"
      opacity=".3" />
    <path fill="url(#a)"
      d="M0 0v1154.59q250-163.596 500-186.103t500-144.78 500-150.39 500-76.808 500-348.042 500-76.97V0Z" opacity=".3" />
    <path fill="url(#b)"
      d="M0 0v1079.54q250 34.25 500 10.95t500-208.866 500-355.076 500-19.973 500-244.806 500-181.567V0Z" opacity=".3" />
    <path fill="url(#a)"
      d="M0 0v1222.86q250-354.167 500-377.217t500-135.052 500-70.507 500-309.22 500-37.699 500-64.438V0Z"
      opacity=".3" />
    <path fill="url(#a)"
      d="M0 0v1105.17q250-89.49 500-121.333t500-109.246 500-176.441 500-258.841 500-113.075 500-148.752V0Z"
      opacity=".3" />
    <path fill="url(#b)"
      d="M0 0v987.312q250-69.729 500-90.685t500-235.267 500-156.544 500-122.657 500-113.31 500-171.608V0Z"
      opacity=".3" />
    <path fill="url(#c)"
      d="M0 0v1231.48q250-128.06 500-148.37t500-261.895 500-41.61 500-327.271 500-56.981 500-248.307V0Z" opacity=".3" />
  </g>
</svg>